HIERARCHY
ROOT hip
{
  OFFSET 3.12472 80.9536 175.129
  CHANNELS 6 Xposition Yposition Zposition Zrotation Xrotation Yrotation
  JOINT abdomen
  {
    OFFSET 0 20.6881 -0.73152
    CHANNELS 3 Zrotation Xrotation Yrotation
    JOINT chest
    {
      OFFSET 0 11.7043 -0.48768
      CHANNELS 3 Zrotation Xrotation Yrotation
      JOINT neck
      {
        OFFSET 0 22.1894 -2.19456
        CHANNELS 3 Zrotation Xrotation Yrotation
        JOINT head
        {
          OFFSET -0.24384 7.07133 1.2192
          CHANNELS 3 Zrotation Xrotation Yrotation
          JOINT leftEye
          {
            OFFSET 4.14528 8.04674 8.04672
            CHANNELS 3 Zrotation Xrotation Yrotation
            End Site
            {
              OFFSET 1 0 0
            }
          }
          JOINT rightEye
          {
            OFFSET -3.6576 8.04674 8.04672
            CHANNELS 3 Zrotation Xrotation Yrotation
            End Site
            {
              OFFSET 1 0 0
            }
          }
        }
      }
      JOINT rCollar
      {
        OFFSET -2.68224 19.2634 -4.8768
        CHANNELS 3 Zrotation Xrotation Yrotation
        JOINT rShldr
        {
          OFFSET -8.77824 -1.95073 1.46304
          CHANNELS 3 Zrotation Xrotation Yrotation
          JOINT rForeArm
          {
            OFFSET -28.1742 -1.7115 0.48768
            CHANNELS 3 Zrotation Xrotation Yrotation
            JOINT rHand
            {
              OFFSET -22.5879 0.773209 7.07136
              CHANNELS 3 Zrotation Xrotation Yrotation
              JOINT rThumb1
              {
                OFFSET -1.2192 -0.487915 3.41376
                CHANNELS 3 Zrotation Xrotation Yrotation
                JOINT rThumb2
                {
                  OFFSET -3.37035 -0.52449 3.41376
                  CHANNELS 3 Zrotation Xrotation Yrotation
                  End Site
                  {
                    OFFSET -1.78271 -1.18214 1.43049
                  }
                }
              }
              JOINT rIndex1
              {
                OFFSET -7.75947 0.938293 5.60832
                CHANNELS 3 Zrotation Xrotation Yrotation
                JOINT rIndex2
                {
                  OFFSET -2.54057 -0.884171 1.56538
                  CHANNELS 3 Zrotation Xrotation Yrotation
                  End Site
                  {
                    OFFSET -1.62519 -0.234802 1.16502
                  }
                }
              }
              JOINT rMid1
              {
                OFFSET -8.24714 1.18213 3.41376
                CHANNELS 3 Zrotation Xrotation Yrotation
                JOINT rMid2
                {
                  OFFSET -3.10165 -0.590103 1.0647
                  CHANNELS 3 Zrotation Xrotation Yrotation
                  End Site
                  {
                    OFFSET -2.48547 -0.328903 0.83742
                  }
                }
              }
              JOINT rRing1
              {
                OFFSET -8.82822 0.546677 1.51678
                CHANNELS 3 Zrotation Xrotation Yrotation
                JOINT rRing2
                {
                  OFFSET -2.60934 -0.819778 -0.0198488
                  CHANNELS 3 Zrotation Xrotation Yrotation
                  End Site
                  {
                    OFFSET -2.33842 -0.294052 0.168128
                  }
                }
              }
              JOINT rPinky1
              {
                OFFSET -8.27202 -0.0477905 -0.4584
                CHANNELS 3 Zrotation Xrotation Yrotation
                JOINT rPinky2
                {
                  OFFSET -1.82734 -0.647385 -0.700984
                  CHANNELS 3 Zrotation Xrotation Yrotation
                  End Site
                  {
                    OFFSET -1.69225 -0.51767 -0.607171
                  }
                }
              }
            }
          }
        }
      }
      JOINT lCollar
      {
        OFFSET 2.68224 19.2634 -4.8768
        CHANNELS 3 Zrotation Xrotation Yrotation
        JOINT lShldr
        {
          OFFSET 8.77824 -1.95073 1.46304
          CHANNELS 3 Zrotation Xrotation Yrotation
          JOINT lForeArm
          {
            OFFSET 28.1742 -1.7115 0.48768
            CHANNELS 3 Zrotation Xrotation Yrotation
            JOINT lHand
            {
              OFFSET 22.5879 0.773209 7.07136
              CHANNELS 3 Zrotation Xrotation Yrotation
              JOINT lThumb1
              {
                OFFSET 1.2192 -0.487915 3.41376
                CHANNELS 3 Zrotation Xrotation Yrotation
                JOINT lThumb2
                {
                  OFFSET 3.37035 -0.52449 3.41376
                  CHANNELS 3 Zrotation Xrotation Yrotation
                  End Site
                  {
                    OFFSET 1.78271 -1.18214 1.43049
                  }
                }
              }
              JOINT lIndex1
              {
                OFFSET 7.75947 0.938293 5.60832
                CHANNELS 3 Zrotation Xrotation Yrotation
                JOINT lIndex2
                {
                  OFFSET 2.54057 -0.884171 1.56538
                  CHANNELS 3 Zrotation Xrotation Yrotation
                  End Site
                  {
                    OFFSET 1.62519 -0.234802 1.16502
                  }
                }
              }
              JOINT lMid1
              {
                OFFSET 8.24714 1.18213 3.41376
                CHANNELS 3 Zrotation Xrotation Yrotation
                JOINT lMid2
                {
                  OFFSET 3.10165 -0.590103 1.0647
                  CHANNELS 3 Zrotation Xrotation Yrotation
                  End Site
                  {
                    OFFSET 2.48547 -0.328903 0.83742
                  }
                }
              }
              JOINT lRing1
              {
                OFFSET 8.82822 0.546677 1.51678
                CHANNELS 3 Zrotation Xrotation Yrotation
                JOINT lRing2
                {
                  OFFSET 2.60934 -0.819778 -0.0198488
                  CHANNELS 3 Zrotation Xrotation Yrotation
                  End Site
                  {
                    OFFSET 2.33842 -0.294052 0.168128
                  }
                }
              }
              JOINT lPinky1
              {
                OFFSET 8.27202 -0.0477905 -0.4584
                CHANNELS 3 Zrotation Xrotation Yrotation
                JOINT lPinky2
                {
                  OFFSET 1.82734 -0.647385 -0.700984
                  CHANNELS 3 Zrotation Xrotation Yrotation
                  End Site
                  {
                    OFFSET 1.69225 -0.51767 -0.607171
                  }
                }
              }
            }
          }
        }
      }
    }
  }
  JOINT rButtock
  {
    OFFSET -8.77824 4.35084 1.2192
    CHANNELS 3 Zrotation Xrotation Yrotation
    JOINT rThigh
    {
      OFFSET 0 -1.70687 -2.19456
      CHANNELS 3 Zrotation Xrotation Yrotation
      JOINT rShin
      {
        OFFSET 0 -36.8199 0.73152
        CHANNELS 3 Zrotation Xrotation Yrotation
        JOINT rFoot
        {
          OFFSET 0.73152 -45.1104 -5.12064
          CHANNELS 3 Zrotation Xrotation Yrotation
          End Site
          {
            OFFSET -1.1221 -3.69964 12.103
          }
        }
      }
    }
  }
  JOINT lButtock
  {
    OFFSET 8.77824 4.35084 1.2192
    CHANNELS 3 Zrotation Xrotation Yrotation
    JOINT lThigh
    {
      OFFSET 0 -1.70687 -2.19456
      CHANNELS 3 Zrotation Xrotation Yrotation
      JOINT lShin
      {
        OFFSET 0 -36.8199 0.73152
        CHANNELS 3 Zrotation Xrotation Yrotation
        JOINT lFoot
        {
          OFFSET -0.73152 -45.1104 -5.12064
          CHANNELS 3 Zrotation Xrotation Yrotation
          End Site
          {
            OFFSET 1.1221 -3.69964 12.103
          }
        }
      }
    }
  }
}
MOTION
Frames:	4
Frame Time:	0.00833333
10.2139 85.2343 -199.419 -0.535985 -0.000989679 0.00934295 0.70519 -0.00371385 0.0199543 0.194579 -0.00526911 0.0337141 -3.2614e-015 0 -1.24241e-017 -9.63174e-015 3.18055e-015 -5.28022e-017 -0 0 0 -0 0 0 -1.54195e-015 1.35888e-018 1.98785e-016 -3.30347e-014 -1.2424e-016 1.98785e-016 -5.90937e-013 1.75328e-013 -9.54166e-015 -6.76213e-012 -1.82484e-013 -6.36111e-014 -1.59562e-011 -1.62413e-014 -1.43125e-013 -2.75679e-011 -2.8625e-014 -2.36156e-013 -1.59529e-011 -1.82882e-014 -1.46306e-013 7.73091 5.47488 0.417314 -1.59575e-011 -1.66979e-014 -1.36764e-013 2.90554 0.965183 0.102902 -1.59534e-011 -1.65985e-014 -1.35174e-013 10.2786 0.731801 0.0259123 -1.59656e-011 -1.11319e-014 -1.27222e-013 2.22167 -0.733487 -0.20892 -1.7381e-015 1.16475e-018 -1.98785e-016 -3.45726e-014 -1.42876e-016 -9.93923e-016 -5.88204e-013 -1.79701e-013 -1.27222e-014 -6.76339e-012 1.66606e-013 -3.81667e-014 -1.59455e-011 -2.71214e-014 -1.24042e-013 -2.75317e-011 -4.13472e-014 -2.17073e-013 -1.59489e-011 -2.90226e-014 -1.145e-013 -7.73091 5.47488 -0.417314 -1.59441e-011 -2.80286e-014 -1.30403e-013 -2.90554 0.965183 -0.102902 -1.59488e-011 -2.70347e-014 -1.28812e-013 -10.2786 0.731801 -0.0259123 -1.59372e-011 -2.3059e-014 -1.36764e-013 -2.22167 -0.733487 0.20892 -2.03217e-016 0 -3.88251e-019 1.03765 -4.8484 -0.0878806 -0.00129045 3.22992 0.00172157 -0.507964 1.61857 0.090946 2.03217e-016 0 3.88251e-019 0.0357967 -2.16336 0.0186169 0.00864554 -1.63356 0.0730548 0.498184 3.79688 -0.134162 
10.3875 83.3871 -201.142 -0.868321 1.51835 1.86724 -0.343789 1.74045 -1.22256 1.4517 0.571616 -0.362007 -2.00139 3.12442 -0.96967 0.561913 6.25087 -1.82392 -0 0 0 -0 0 0 4.9347e-015 -3.74326e-014 3.32856e-014 20.2795 -2.62751 0.311704 -2.63475 -0.994293 4.30929 0.00389468 1.38761 0.194811 -2.45841e-010 4.12667e-010 5.76427e-010 -4.22264e-010 7.15326e-010 9.97637e-010 -2.45837e-010 4.12666e-010 5.76422e-010 7.73091 5.47488 0.417314 -2.45841e-010 4.12667e-010 5.76431e-010 2.90554 0.965183 0.102902 -2.45835e-010 4.12667e-010 5.76433e-010 10.2786 0.731801 0.0259123 -2.45848e-010 4.12671e-010 5.76441e-010 2.22167 -0.733487 -0.20892 4.79753e-015 -3.74328e-014 3.29276e-014 -21.0682 3.16695 0.912492 5.60142 -2.89791 -8.33198 -0.0076854 1.9583 -0.274653 -5.15921e-010 -8.51477e-010 -6.68136e-011 -8.92702e-010 -1.47334e-009 -1.11183e-010 -5.15925e-010 -8.51478e-010 -6.68079e-011 -7.73091 5.47488 -0.417314 -5.1592e-010 -8.51479e-010 -6.682e-011 -2.90554 0.965183 -0.102902 -5.15926e-010 -8.51478e-010 -6.6818e-011 -10.2786 0.731801 -0.0259123 -5.15914e-010 -8.51475e-010 -6.68255e-011 -2.22167 -0.733487 0.20892 -2.03217e-016 0 -3.88251e-019 1.10962 -9.38514 -1.81869 0.00429509 12.4426 0.149377 -0.598539 -3.45053 -0.597918 2.03217e-016 0 3.88251e-019 -0.455708 -6.31744 -0.56667 -0.00148172 6.53449 -0.0519622 0.415079 -2.46748 -0.671074 
10.378 83.4029 -201.101 -1.31529 3.11416 3.8417 -1.38079 3.59167 -2.54797 2.79098 1.17788 -0.782972 -3.99728 6.42163 -2.00146 1.59228 12.8365 -3.81888 -0 0 0 -0 0 0 1.36015e-014 -7.94138e-014 6.80216e-014 41.7484 -5.40948 0.646116 -5.25708 -2.0262 8.86758 -0.00228924 2.8654 0.402672 -5.08284e-010 8.45053e-010 1.20775e-009 -8.72965e-010 1.4649e-009 2.09031e-009 -5.0828e-010 8.45053e-010 1.20775e-009 7.73091 5.47488 0.417314 -5.08284e-010 8.45053e-010 1.20776e-009 2.90554 0.965183 0.102902 -5.08275e-010 8.45053e-010 1.20776e-009 10.2786 0.731801 0.0259123 -5.0829e-010 8.45055e-010 1.20777e-009 2.22167 -0.733487 -0.20892 1.35273e-014 -7.9414e-014 6.77048e-014 -43.4499 6.50728 1.89528 10.607 -5.74899 -17.1942 0.00478117 4.05485 -0.5698 -1.07183e-009 -1.7813e-009 -1.52071e-010 -1.85469e-009 -3.08225e-009 -2.53801e-010 -1.07183e-009 -1.7813e-009 -1.5207e-010 -7.73091 5.47488 -0.417314 -1.07183e-009 -1.7813e-009 -1.52078e-010 -2.90554 0.965183 -0.102902 -1.07184e-009 -1.7813e-009 -1.52075e-010 -10.2786 0.731801 -0.0259123 -1.07182e-009 -1.7813e-009 -1.52083e-010 -2.22167 -0.733487 0.20892 -2.03217e-016 0 -3.88251e-019 0.85545 -14.1835 -3.73252 -0.045704 22.2251 0.322504 -0.824617 -8.7924 -1.32527 2.03217e-016 0 3.88251e-019 -1.08188 -10.6972 -1.19798 0.0275188 15.1612 -0.189864 0.196294 -9.09389 -1.26071 
10.3498 83.4174 -201.047 -1.82886 4.53779 5.59866 -2.21418 5.21901 -3.72134 3.98987 1.72507 -1.15392 -5.68341 9.36244 -2.94394 2.934 18.6744 -5.74249 -0 0 0 -0 0 0 1.7888e-014 -1.12301e-013 9.94591e-014 60.925 -7.88158 0.943039 -7.4593 -2.91547 12.943 -0.0166873 4.16265 0.585808 -7.0561e-010 1.23803e-009 1.72957e-009 -1.21166e-009 2.14603e-009 2.99338e-009 -7.05605e-010 1.23803e-009 1.72956e-009 7.73091 5.47488 0.417314 -7.05609e-010 1.23803e-009 1.72957e-009 2.90554 0.965183 0.102902 -7.05597e-010 1.23803e-009 1.72957e-009 10.2786 0.731801 0.0259123 -7.05613e-010 1.23803e-009 1.72958e-009 2.22167 -0.733487 -0.20892 1.78688e-014 -1.12301e-013 9.91803e-014 -63.5106 9.49113 2.77126 14.3446 -7.95985 -25.2235 0.0335188 5.87436 -0.827826 -1.51587e-009 -2.55438e-009 -2.00193e-010 -2.62304e-009 -4.41994e-009 -3.33113e-010 -1.51588e-009 -2.55438e-009 -2.00195e-010 -7.73091 5.47488 -0.417314 -1.51587e-009 -2.55438e-009 -2.00199e-010 -2.90554 0.965183 -0.102902 -1.51588e-009 -2.55438e-009 -2.00196e-010 -10.2786 0.731801 -0.0259123 -1.51587e-009 -2.55438e-009 -2.00203e-010 -2.22167 -0.733487 0.20892 -2.03217e-016 0 -3.88251e-019 0.391893 -18.3935 -5.4891 -0.147685 30.8671 0.505814 -1.15352 -13.5811 -2.02908 2.03217e-016 0 3.88251e-019 -1.70084 -14.6197 -1.78469 0.0916216 22.8703 -0.326599 -0.113696 -14.9896 -1.80506 
